<?xml version="1.0" encoding="UTF-8"?>
<svg id="Warstwa_1" data-name="Warstwa 1" xmlns="http://www.w3.org/2000/svg" xmlns:xlink="http://www.w3.org/1999/xlink" viewBox="0 0 1582.22 1582.22">
  <defs>
    <style>
      .cls-1 {
        font-family: BrunoAceSC-Regular, 'Bruno Ace SC';
        font-size: 70.02px;
        letter-spacing: 1em;
      }

      .cls-2 {
        fill: #82378c;
      }

      .cls-3 {
        fill: url(#Gradient_bez_nazwy_831);
      }

      .cls-4 {
        fill: url(#Gradient_bez_nazwy_817);
      }
    </style>
    <linearGradient id="Gradient_bez_nazwy_831" data-name="Gradient bez nazwy 831" x1="1225.63" y1="505.31" x2="1317.59" y2="505.31" gradientUnits="userSpaceOnUse">
      <stop offset="0" stop-color="#e72987"/>
      <stop offset="1" stop-color="#e72787"/>
    </linearGradient>
    <linearGradient id="Gradient_bez_nazwy_817" data-name="Gradient bez nazwy 817" x1="294.69" y1="616.21" x2="1318.5" y2="616.21" gradientUnits="userSpaceOnUse">
      <stop offset="0" stop-color="#82368c"/>
      <stop offset="1" stop-color="#e72787"/>
    </linearGradient>
  </defs>
  <g>
    <path class="cls-2" d="M495.74,555.35c4.2,0,7.35-1.04,9.47-3.16,2.1-2.1,3.45-4.35,4.06-6.76l19.83-27.95c2.4-3.61,8.41-8.41,18.03-14.43,6.61-4.8,12.47-10.06,17.58-15.78,5.1-5.71,7.66-10.66,7.66-14.88,0-11.41-6.31-17.13-18.93-17.13-4.82,0-10.07,1.51-15.78,4.51-5.72,3.01-13.68,10.23-23.9,21.64-3.01,3.01-7.21,8.72-12.62,17.13-5.41,8.42-10.23,16.68-14.42,24.79-4.21,8.11-6.31,13.68-6.31,16.68,0,10.23,5.1,15.33,15.33,15.33Z"/>
    <path class="cls-3" d="M1240.96,555.35c4.2,0,7.35-1.04,9.47-3.16,2.1-2.1,3.45-4.35,4.06-6.76l19.83-27.95c2.4-3.61,8.41-8.41,18.03-14.43,6.61-4.8,12.47-10.06,17.58-15.78,5.1-5.71,7.66-10.66,7.66-14.88,0-11.41-6.31-17.13-18.93-17.13-4.82,0-10.07,1.51-15.78,4.51-5.72,3.01-13.68,10.23-23.9,21.64-3.01,3.01-7.21,8.72-12.62,17.13-5.41,8.42-10.23,16.68-14.42,24.79-4.21,8.11-6.31,13.68-6.31,16.68,0,10.23,5.1,15.33,15.33,15.33Z"/>
    <path class="cls-4" d="M1304.97,752.8c-4.82,0-8.43,1.21-10.82,3.61-12.03,11.42-26.59,24.95-43.73,40.57-17.13,15.64-35.32,30.81-54.55,45.53-19.24,14.74-38.18,26.91-56.8,36.51-18.64,9.62-35.47,14.43-50.49,14.43-7.82,0-12.78-1.2-14.88-3.61-2.11-2.39-3.16-6-3.16-10.82,0-10.82,3.61-26.44,10.82-46.88,6.61-20.43,12.92-35.16,18.93-44.18,2.39-3.61,7.51-10.37,15.33-20.29,7.8-9.92,15.92-20.58,24.34-32.01,8.41-11.41,15.02-20.43,19.83-27.05,12.02-18.03,23.13-35.46,33.36-52.29,10.21-16.82,15.33-28.25,15.33-34.26,0-9.61-5.41-14.43-16.23-14.43-7.82,0-18.18,7.37-31.1,22.09-12.93,14.74-26.3,33.51-40.12,56.35-13.83,22.85-26.91,46.88-39.22,72.13-12.33,25.24-22.4,48.84-30.2,70.77-7.82,21.95-11.72,39.22-11.72,51.84,0,4.08.4,7.8,1.11,11.24-9.43-18-21.18-37.52-35.31-58.58-14.73-21.93-30.51-43.28-47.33-64.01-16.83-20.74-32.46-38.91-46.88-54.55,28.25-15.62,52.74-29.44,73.48-41.47,20.74-12.02,37.71-22.23,50.94-30.65,15.62-8.41,31.11-16.52,46.43-24.34,15.33-7.8,36.2-18.03,62.66-30.65,7.21-3,10.82-7.8,10.82-14.43,0-10.82-4.82-16.23-14.42-16.23-10.82,0-88.96,42.37-234.42,127.12l64.91-128.93c3-4.8,8.86-13.37,17.58-25.69,8.71-12.31,18.17-25.84,28.4-40.57,10.21-14.72,19.83-28.4,28.85-41.02,9.02-12.62,15.33-21.64,18.93-27.05,45.67-67.31,68.52-108.78,68.52-124.42,0-11.41-5.41-17.13-16.23-17.13-6.02,0-13.07,4.82-21.19,14.43-8.11,9.62-16.38,20.44-24.8,32.46-36.67,51.09-85.35,135.84-146.06,254.25-31.87,61.91-60.27,119.01-85.2,171.3-21.04,44.11-44.77,79.47-61.06,112.19-2.72.93-4.82,1.41-6.23,1.41-5.41,0-8.11-3.9-8.11-11.72,0-16.82,15.33-57.1,45.98-120.81,30.65-63.11,45.98-103.68,45.98-121.71,0-19.84-10.52-29.75-31.56-29.75-30.66,0-74.54,24.95-131.63,74.83-19.24,16.83-38.18,34.57-56.8,53.19-18.64,18.64-36.97,38.47-55,59.5,9.61-16.82,21.64-40.87,36.06-72.13,8.41-17.43,15.33-33.05,20.74-46.88,5.41-13.82,8.11-22.84,8.11-27.05,0-12.02-5.72-18.03-17.13-18.03-8.43,0-12.62,4.21-12.62,12.62,0,7.82-17.44,47.19-52.29,118.11l-8.62,17.34c-3.23.44-5.77,1.57-7.59,3.4-12.03,11.42-26.59,24.95-43.73,40.57-17.13,15.64-35.32,30.81-54.55,45.53-19.24,14.74-38.18,26.91-56.8,36.51-18.64,9.62-35.47,14.43-50.49,14.43-7.82,0-12.78-1.2-14.88-3.61-2.11-2.39-3.16-6-3.16-10.82,0-10.82,3.61-26.44,10.82-46.88,6.61-20.43,12.92-35.16,18.93-44.18,2.39-3.61,7.51-10.37,15.33-20.29,7.8-9.92,15.92-20.58,24.34-32.01,8.41-11.41,15.02-20.43,19.83-27.05,12.02-18.03,23.13-35.46,33.36-52.29,10.21-16.82,15.33-28.25,15.33-34.26,0-9.61-5.41-14.43-16.23-14.43-7.82,0-18.18,7.37-31.1,22.09-12.93,14.74-26.3,33.51-40.12,56.35-13.83,22.85-26.91,46.88-39.22,72.13-12.33,25.24-22.4,48.84-30.2,70.77-7.82,21.95-11.72,39.22-11.72,51.84s3.75,23.15,11.27,29.75c7.51,6.61,19.68,9.92,36.51,9.92,21.03,0,43.57-6.02,67.62-18.03,24.03-12.02,45.98-25.24,65.81-39.67,12.62-9.61,25.84-20.74,39.67-33.36,1.79-1.64,3.61-3.31,5.44-5.01l-37.01,74.43c-1.8,3.01-3.92,6.76-6.31,11.27-2.41,4.51-3.61,8.26-3.61,11.27,0,7.8,4.8,11.72,14.42,11.72,6,0,10.82-2.7,14.42-8.11l63.11-87.45c28.85-40.26,59.19-76.03,91.06-107.29,31.85-31.25,63.7-58.9,95.57-82.95,29.44-22.23,50.78-33.36,64.01-33.36,5.41,0,8.11,3.61,8.11,10.82,0,12.03-14.74,47.19-44.18,105.49-29.46,58.91-44.18,102.78-44.18,131.63,0,9.62,2.71,17.29,8.12,22.99,4.77,5.04,12.11,7.85,22.03,8.44-.95,2.13-1.89,4.25-2.88,6.34-2.71,5.72-4.06,10.37-4.06,13.97,0,8.41,13.57,17.68,23.8,17.68,6,0,10.21-3.01,12.62-9.02,9.61-20.43,18.62-40.12,27.05-59.05,8.41-18.93,17.72-39.22,27.95-60.86,10.21-21.64,21.93-45.98,35.16-73.03,24.03,26.46,48.38,55.45,73.03,87,24.64,31.56,34.67,56.96,47.89,88.81l12.62,30.65c3,7.21,16.42,17.13,22.43,17.13,9.61,0,14.43-4.51,14.43-13.52,0-8.45-2.64-18.88-7.91-31.27.77.85,1.57,1.66,2.43,2.42,7.51,6.61,19.68,9.92,36.51,9.92,21.03,0,43.57-6.02,67.62-18.03,24.03-12.02,45.98-25.24,65.81-39.67,12.62-9.61,25.84-20.74,39.67-33.36,13.82-12.62,28.85-27.05,45.08-43.28,8.41-8.41,12.62-15.92,12.62-22.54,0-7.21-4.51-10.82-13.52-10.82Z"/>
  </g>
  <text class="cls-1" transform="translate(282.01 1092.5) scale(1.09 1)"><tspan x="0" y="0">GRAPHICS</tspan></text>
</svg>